<svg id="Layer_1" data-name="Layer 1" xmlns="http://www.w3.org/2000/svg" viewBox="0 0 1080 249.46"><defs><style>.cls-1{fill:#fff;}</style></defs><title>web-site-logo-beyaz</title><path class="cls-1" d="M8.69,249.46a8.37,8.37,0,0,1-6.87-3.17A8.75,8.75,0,0,1,.23,238.8l16.3-76.47q4.57-21.06,22.55-35.77T78,111.76q21,0,32.69,14.89t7.22,35.86q-4.4,21-22.46,35.85t-39,14.89q-19.2,0-27.31-8.81L21.82,238.8a13,13,0,0,1-4.76,7.49A12.45,12.45,0,0,1,9,249.46ZM83.48,183q10.41-8.55,13-20.62t-4.14-20.7q-6.7-8.46-18.86-8.46T51,141.63a35.92,35.92,0,0,0-12.86,20.7Q35.55,174.4,42.17,183q6.78,8.53,18.94,8.54T83.48,183Z"/><path class="cls-1" d="M232.64,126.65q11.72,14.9,7.23,35.86l-8.46,40.08a14.13,14.13,0,0,1-12.95,10.66h-.27a8.13,8.13,0,0,1-6.78-3.17,8.24,8.24,0,0,1-1.58-7.49q-12.35,10.66-31.46,10.66-21,0-32.68-14.89t-7.31-35.85q4.49-21,22.55-35.86t39-14.89Q220.93,111.76,232.64,126.65Zm-59.82,15.24A36.63,36.63,0,0,0,160,162.51q-2.55,12.15,4.06,20.7,6.78,8.46,18.94,8.46t22.37-8.46q10.39-8.55,12.95-20.7t-4.14-20.62q-6.69-8.53-18.76-8.54T172.82,141.89Z"/><path class="cls-1" d="M416.05,126.65q11.71,14.9,7.23,35.86l-8.46,40.08a14.13,14.13,0,0,1-12.95,10.66h-.27a8.12,8.12,0,0,1-6.78-3.17,8.27,8.27,0,0,1-1.59-7.49q-12.33,10.66-31.45,10.66-21,0-32.68-14.89t-7.31-35.85q4.48-21,22.55-35.86t39-14.89Q404.32,111.76,416.05,126.65Zm-59.82,15.24a36.63,36.63,0,0,0-12.86,20.62q-2.55,12.15,4.05,20.7,6.78,8.46,18.94,8.46t22.38-8.46q10.39-8.55,12.95-20.7t-4.14-20.62q-6.69-8.53-18.77-8.54T356.23,141.89Z"/><path class="cls-1" d="M462.74,202.59a14.13,14.13,0,0,1-13,10.66h-.26a8.12,8.12,0,0,1-6.78-3.17,8.24,8.24,0,0,1-1.59-7.49l10.31-48.45q3.71-17.44,18.76-30t32.6-12.42q21,0,28.63,13.92Q545,111.76,566,111.76q17.53,0,27.31,12.42t6.08,30l-10.31,48.45a13.29,13.29,0,0,1-4.67,7.49,12.88,12.88,0,0,1-8.28,3.17h-.18a7.84,7.84,0,0,1-6.78-3.17,8.27,8.27,0,0,1-1.59-7.49l10.31-48.45q1.77-8.64-3-14.71t-13.48-6.08a24.75,24.75,0,0,0-16,6.08,25.2,25.2,0,0,0-9.16,14.71L525.9,202.59a12.72,12.72,0,0,1-4.75,7.49,12.33,12.33,0,0,1-8.2,3.17h-.17a8.48,8.48,0,0,1-8.46-10.66l10.31-48.45q1.75-8.64-3-14.71t-13.39-6.08a24.7,24.7,0,0,0-16,6.08A25.21,25.21,0,0,0,473,154.14Z"/><path class="cls-1" d="M714.29,126.65q-11.71-14.88-32.68-14.89t-39,14.89q-18.06,14.9-22.55,35.86t7.31,35.85q11.71,14.89,32.68,14.89t39-14.89q18.06-14.88,22.47-35.85T714.29,126.65Zm-8.76,1.44a38,38,0,0,1,3,3.41c.54.69,1.06,1.39,1.55,2.11l-7,4.75c-.38-.56-.78-1.11-1.21-1.65a26.91,26.91,0,0,0-2.34-2.63Zm-26.17-10a45.19,45.19,0,0,1,7,.52l-1.3,8.32a37.08,37.08,0,0,0-5.7-.42l-.15-8.42Zm-20.42,4.43,3.48,7.67a46.72,46.72,0,0,0-5.16,2.75l-4.41-7.18A54.08,54.08,0,0,1,658.94,122.53Zm-21.52,16.59,6.48,5.38a46.27,46.27,0,0,0-3.43,4.71l-7.11-4.5A54,54,0,0,1,637.42,139.12Zm-12,31.91a45.73,45.73,0,0,1,.6-7l8.31,1.35a37.58,37.58,0,0,0-.49,5.68ZM636.14,197a35.19,35.19,0,0,1-3.08-3.46c-.53-.67-1-1.35-1.51-2l7-4.76c.37.54.76,1.08,1.18,1.61a27.56,27.56,0,0,0,2.37,2.66Zm26.12,9.95a45.52,45.52,0,0,1-6.93-.52l1.28-8.32a37.83,37.83,0,0,0,5.65.41l.06,8.43Zm20.33-4.39-3.46-7.68a47.43,47.43,0,0,0,5.16-2.73l4.4,7.18A55,55,0,0,1,682.59,202.53ZM687,183.39q-10.4,8.54-22.46,8.54t-18.86-8.54q-6.6-8.55-4-20.62a36,36,0,0,1,12.86-20.7q10.31-8.55,22.47-8.55t18.85,8.55q6.69,8.55,4.14,20.7T687,183.39ZM704.14,186l-6.48-5.38a45.86,45.86,0,0,0,3.43-4.71l7.12,4.5A54.8,54.8,0,0,1,704.14,186Zm11.4-24.9-8.31-1.39a37.85,37.85,0,0,0,.52-5.69l8.42.09A46,46,0,0,1,715.54,161.06Z"/><path class="cls-1" d="M776.33,75.64a8.48,8.48,0,0,1,6.88,3.09,8.69,8.69,0,0,1,1.49,7.57L760,202.59a14.11,14.11,0,0,1-12.94,10.66h-.27a8.12,8.12,0,0,1-6.78-3.17,8.24,8.24,0,0,1-1.59-7.49L763.12,86.3A13.31,13.31,0,0,1,768,78.73a12.57,12.57,0,0,1,8.1-3.09Z"/><path class="cls-1" d="M831.47,133.35a11.08,11.08,0,0,0-7.14,2.64,11.6,11.6,0,0,0-4,6.52q-1.15,5.28,3.43,7.93,1.5,1,13.74,4.4,9.87,3,13.92,7.84,5.82,7,3.09,19.83-2.64,12.68-13.57,21.76t-23.7,9h-23a8.15,8.15,0,0,1-6.79-3.17,8.24,8.24,0,0,1-1.58-7.49v-.17a13.51,13.51,0,0,1,4.76-7.58,12.7,12.7,0,0,1,8.19-3.17h23.88a10.69,10.69,0,0,0,7-2.65,11,11,0,0,0,4.05-6.51q1.06-4.84-3.43-7.32-1.23-.62-13.92-4.4-9.78-3.09-13.83-8.11-5.82-7.12-3-20.17,2.64-12.69,13.57-21.67t23.7-9.08h16.21a8.22,8.22,0,0,1,6.87,3.17,8.59,8.59,0,0,1,1.59,7.58v.18a12.7,12.7,0,0,1-4.85,7.49,12.54,12.54,0,0,1-8.19,3.17Z"/><path class="cls-1" d="M900.34,170.7q-1.85,8.72,2.91,14.89t13.66,6.08a25.21,25.21,0,0,0,16.2-6.08,26.12,26.12,0,0,0,9.26-14.89l10.22-48.19a13.55,13.55,0,0,1,4.75-7.58,12.9,12.9,0,0,1,8.28-3.17h.18a7.83,7.83,0,0,1,6.78,3.17,8.56,8.56,0,0,1,1.59,7.58L964,170.7q-3.8,17.53-18.94,30t-32.69,12.51q-17.61,0-27.48-12.51t-6.08-30L889,122.51a13.55,13.55,0,0,1,4.75-7.58,12.8,12.8,0,0,1,8.2-3.17h.26a8.12,8.12,0,0,1,6.78,3.17,8.53,8.53,0,0,1,1.59,7.58Z"/><path class="cls-1" d="M1005.16,202.59a14.13,14.13,0,0,1-12.95,10.66h-.27a8.12,8.12,0,0,1-6.78-3.17,8.24,8.24,0,0,1-1.59-7.49l10.22-48.19q3.71-17.61,18.94-30.13t32.78-12.51q17.52,0,27.39,12.51T1079,154.4l-10.21,48.19a12.78,12.78,0,0,1-4.76,7.49,12.33,12.33,0,0,1-8.2,3.17h-.17a8.49,8.49,0,0,1-8.46-10.66l10.22-48.19q1.85-8.72-2.91-14.88t-13.57-6.17a25.05,25.05,0,0,0-16.29,6.17,26,26,0,0,0-9.25,14.88Z"/><path class="cls-1" d="M455,52.53,398.19,90.11a4.48,4.48,0,0,1-6.94-4l1.16-16.77c-15,.33-29.58,3.27-42.79,9.84C335.71,86,323.34,96.7,313.34,110.2s-17.69,29.44-23.45,46.28A299.31,299.31,0,0,0,277.5,209.2v0a4.72,4.72,0,0,1-9.38-.66A314.48,314.48,0,0,1,272.39,152c3.34-18.88,8.87-37.85,18.21-55.83S313.5,61.46,331.13,49,369.67,28.8,390.54,25.4l.5-.08a22.36,22.36,0,0,1,4.45-.27l1.45-20.87a4.48,4.48,0,0,1,7.41-3.08l51.09,44.31A4.47,4.47,0,0,1,455,52.53Z"/></svg>